<?xml version="1.0" standalone="no"?>
<!DOCTYPE svg PUBLIC "-//W3C//DTD SVG 20010904//EN"
 "http://www.w3.org/TR/2001/REC-SVG-20010904/DTD/svg10.dtd">
<svg class="svg-item" version="1.0" xmlns="http://www.w3.org/2000/svg"
 width="3840.000000pt" height="3606.000000pt" viewBox="0 0 3840.000000 3606.000000"
 preserveAspectRatio="xMidYMid meet">
<metadata>
Created by potrace 1.16, written by Peter Selinger 2001-2019
</metadata>
<g transform="translate(0.000000,3606.000000) scale(0.100000,-0.100000)"
fill="#000000" stroke="none">
<path d="M0 34617 l0 -1443 8417 -7084 c4629 -3897 8422 -7089 8429 -7095 9
-8 2 -30 -31 -97 -41 -85 -110 -253 -135 -331 -6 -21 -15 -37 -20 -35 -4 2
-217 102 -473 223 -261 123 -461 223 -454 227 6 4 9 10 6 13 -4 3 -3505 1657
-7780 3676 -4276 2019 -7816 3690 -7866 3714 l-93 44 0 -2248 0 -2247 2917
-693 c1605 -380 2975 -706 3045 -722 92 -22 128 -35 130 -46 2 -13 1122 -288
5233 -1285 2877 -697 5231 -1268 5233 -1268 1 0 2 -29 2 -65 l0 -66 -367 6
c-323 6 -15957 175 -16127 175 l-66 0 0 -1125 c0 -619 3 -1125 8 -1125 4 0
3693 259 8197 575 4504 316 8193 574 8197 573 7 -3 -4770 -2299 -6482 -3116
-564 -269 -2085 -976 -3380 -1572 -1295 -595 -2368 -1093 -2385 -1105 -16 -12
-958 -444 -2093 -960 l-2062 -938 0 -4425 0 -4426 43 41 c72 69 6586 6142
6702 6248 115 105 6091 5681 6122 5712 167 166 1797 1670 2857 2637 l1380
1257 35 -43 c51 -62 266 -279 306 -308 19 -14 36 -30 39 -36 4 -11 -53 -98
-187 -286 -190 -265 -229 -321 -282 -398 -32 -47 -70 -98 -85 -115 -15 -16
-69 -91 -119 -165 -51 -74 -146 -209 -212 -300 -66 -91 -152 -212 -191 -270
-39 -58 -94 -134 -123 -170 -28 -36 -93 -126 -144 -200 -51 -74 -113 -164
-139 -199 -76 -102 -186 -258 -263 -371 -40 -58 -91 -127 -114 -155 -23 -27
-83 -111 -134 -185 -50 -74 -107 -155 -127 -180 -19 -25 -71 -97 -114 -160
-156 -226 -235 -336 -286 -399 -11 -14 -63 -88 -114 -164 -51 -77 -101 -146
-110 -155 -10 -10 -58 -75 -107 -147 -115 -167 -190 -273 -279 -394 -39 -53
-103 -145 -144 -206 -40 -60 -94 -137 -120 -170 -26 -33 -83 -114 -128 -181
-44 -66 -86 -127 -94 -135 -8 -8 -49 -66 -92 -129 -44 -63 -97 -140 -120 -170
-22 -30 -70 -100 -107 -155 -36 -55 -83 -120 -104 -145 -20 -25 -80 -108 -132
-185 -52 -77 -123 -180 -159 -230 -121 -169 -164 -230 -253 -362 -50 -73 -100
-142 -111 -153 -12 -12 -54 -72 -95 -133 -40 -62 -94 -142 -121 -178 -27 -37
-74 -101 -104 -143 -30 -42 -56 -76 -58 -76 -2 0 2 10 11 23 244 367 1841
2805 1845 2816 3 9 -4 5 -15 -9 -10 -14 -635 -950 -1388 -2080 -1274 -1914
-1519 -2279 -1635 -2440 -67 -93 -170 -240 -262 -375 -45 -66 -90 -129 -101
-140 -10 -11 -64 -87 -120 -170 -55 -82 -108 -157 -117 -167 -10 -9 -28 -34
-41 -55 -12 -21 -26 -40 -29 -43 -4 -3 -40 -54 -81 -114 -164 -240 -216 -315
-260 -372 -25 -32 -83 -115 -129 -184 -45 -69 -93 -136 -105 -150 -13 -14 -69
-92 -126 -175 -56 -82 -132 -193 -168 -245 -36 -52 -86 -122 -111 -155 -26
-33 -84 -116 -130 -185 -46 -69 -95 -139 -109 -155 -15 -17 -74 -100 -131
-184 -169 -247 -222 -322 -281 -401 -30 -41 -92 -129 -136 -195 -44 -66 -91
-131 -103 -145 -12 -14 -68 -92 -123 -173 -123 -179 -186 -269 -293 -419 -45
-62 -109 -155 -143 -206 -35 -52 -70 -101 -80 -111 -9 -9 -62 -83 -116 -164
-54 -81 -106 -155 -115 -165 -17 -19 -153 -213 -303 -432 -54 -80 -109 -156
-122 -170 -12 -14 -68 -92 -124 -175 -56 -82 -153 -222 -216 -310 -63 -88
-152 -214 -196 -280 -45 -66 -95 -135 -111 -154 -17 -19 -63 -84 -103 -145
-40 -61 -98 -145 -128 -186 -83 -110 -83 -110 68 -110 l126 0 -49 -73 c-27
-39 -52 -78 -56 -84 -5 -10 7 -13 52 -13 l59 0 53 80 c52 79 53 80 95 80 23 0
1157 -36 2519 -80 l2477 -80 1405 0 1404 0 6 28 c3 15 15 59 25 97 11 39 33
128 49 200 16 72 34 140 40 152 5 13 24 87 41 165 17 79 35 150 40 159 4 9 22
80 39 159 18 79 36 150 40 159 5 9 21 70 35 136 14 66 32 138 39 160 8 22 26
96 41 165 15 69 31 132 36 141 4 9 22 81 39 160 18 79 35 149 40 154 4 6 22
78 40 160 18 83 36 155 40 160 4 6 20 69 35 140 15 72 31 138 36 147 5 9 23
81 40 160 17 79 35 150 40 159 4 9 22 80 39 159 18 79 36 150 41 159 4 9 22
79 39 155 17 77 35 147 39 155 5 9 21 75 36 146 15 72 31 137 36 146 5 9 22
79 39 155 17 77 35 148 40 159 5 11 24 85 41 164 17 79 35 151 40 160 8 15 30
103 113 457 18 78 36 147 40 152 4 6 20 73 36 149 17 76 35 147 40 158 5 11
23 83 40 160 17 77 35 149 40 160 5 11 21 73 35 137 14 65 34 146 44 180 22
73 69 265 112 453 17 72 34 139 39 150 5 11 23 83 40 160 17 77 35 149 40 160
5 11 21 74 35 140 14 66 30 131 36 145 10 23 26 87 117 470 21 85 40 160 44
165 3 6 20 78 38 160 18 83 36 152 39 155 4 3 19 64 34 135 15 72 34 146 42
165 8 19 26 89 40 155 14 66 30 131 35 145 6 14 26 90 44 170 82 344 107 446
115 465 5 11 22 76 36 145 15 69 33 141 40 160 8 19 26 91 41 160 14 69 31
132 35 142 5 9 22 78 39 155 16 76 34 147 40 158 5 11 24 85 41 164 17 79 35
151 40 160 4 9 20 72 35 141 14 69 32 141 39 160 8 19 26 91 40 160 15 69 31
132 36 141 5 9 22 79 39 155 17 77 35 148 40 159 5 11 24 85 41 164 17 79 35
151 40 160 4 9 20 72 35 141 15 69 30 132 35 141 4 9 22 80 39 159 18 79 36
150 41 159 5 9 23 79 39 156 17 77 35 149 40 160 5 11 23 83 40 160 17 77 35
149 40 160 5 11 21 76 36 145 15 69 30 132 35 142 5 9 22 78 39 155 16 76 34
147 40 158 9 19 36 131 115 463 18 79 38 156 44 170 6 15 22 81 36 147 14 66
30 131 36 143 5 13 23 85 39 160 17 76 35 146 40 157 8 17 37 139 67 279 7 32
-3 32 163 2 179 -32 444 -44 623 -28 65 6 77 5 77 -8 0 -8 52 -879 116 -1935
l116 -1920 252 -5702 c138 -3136 254 -5704 257 -5707 3 -3 2838 -5 6301 -4
l6295 3 -4109 5155 c-3181 3991 -7777 9770 -8226 10342 l-53 67 83 42 c105 53
235 135 348 222 49 37 91 67 94 67 17 0 11268 -9733 14166 -12255 1839 -1600
3357 -2921 3372 -2933 l28 -24 0 4269 -1 4268 -4362 1899 c-3349 1458 -12562
5500 -12586 5522 -2 2 16 45 42 96 73 150 139 325 177 476 9 33 15 42 33 42
12 0 1350 -137 2972 -305 2149 -223 4413 -467 8335 -898 l5385 -593 3 1610 c1
885 1 1610 0 1612 -3 2 -16475 -1050 -16593 -1060 l-60 -5 0 215 c0 182 2 215
15 218 139 40 5035 1215 7130 1711 2041 483 2796 666 2798 676 2 11 915 235
3355 825 l3352 811 3 2371 2 2372 -67 -34 c-453 -227 -16678 -8059 -16725
-8073 -12 -3 -18 0 -18 10 0 8 -10 36 -21 63 -12 27 -30 69 -41 94 -11 25 -40
85 -65 133 -24 48 -43 92 -41 96 2 5 174 152 383 327 209 176 587 499 840 719
544 474 1124 961 5628 4729 1879 1572 3417 2864 3417 2870 0 7 1510 1280 3355
2830 l3355 2818 0 1329 0 1329 -1214 0 -1214 0 -4299 -4442 c-3367 -3480
-10595 -10928 -11129 -11468 l-94 -95 -68 35 c-37 19 -66 40 -65 45 1 6 144
321 318 700 211 461 426 911 649 1355 327 652 347 695 987 2145 528 1196 884
1980 1854 4085 678 1469 1197 2608 1192 2611 -6 4 489 1098 1137 2511 630
1377 1146 2507 1146 2511 0 4 -1106 7 -2459 7 l-2459 0 -15 -62 c-9 -35 -727
-3055 -1597 -6711 l-1581 -6649 -316 -1141 c-173 -628 -318 -1145 -322 -1149
-7 -8 -101 -28 -101 -22 0 14 -2434 10669 -2446 10709 -9 28 -269 1168 -578
2535 l-562 2485 -2593 3 c-2073 2 -2592 0 -2588 -10 2 -7 543 -1137 1201
-2510 659 -1374 1195 -2502 1191 -2508 -3 -6 1033 -2203 2303 -4883 1730
-3649 2388 -5048 2622 -5572 172 -385 315 -708 318 -717 2 -10 0 -18 -5 -18
-9 0 -26 -12 -71 -51 -11 -9 -18 -7 -32 7 -112 118 -5443 5959 -5749 6299
-228 253 -443 487 -477 520 -35 33 -903 980 -1930 2105 -1027 1125 -2034 2227
-2238 2450 -204 223 -1293 1415 -2420 2648 l-2049 2242 -1324 0 -1323 0 0
-1443z"/>
</g>
</svg>
